<svg width="764" height="116" viewBox="0 0 764 116" fill="none" xmlns="http://www.w3.org/2000/svg">
<path d="M158.852 76.904L198.999 60.249L165.269 59.0258L166.892 64.7417L158.686 71.4718L158.852 76.904Z" fill="#685ED6"/>
<path d="M199 60.2484L159.452 63.4765L128.202 79.6227L199 60.2484Z" fill="#18E1F7"/>
<path d="M165.27 59.0255L199 60.2487L165.815 47.0767L165.27 59.0255Z" fill="#18E1F7"/>
<path d="M137.5 54.5C115 48 106.9 30.1 68.5 22.5C30.1 14.9 7.66667 27.6667 1 33.5" stroke="#18E1F7" stroke-linecap="round" stroke-linejoin="round" stroke-dasharray="5 7"/>
<path d="M202 82C211 93 235.5 109.8 265.5 113C295.5 116.2 319.667 114.333 328 113" stroke="#33AFE1" stroke-linecap="round" stroke-linejoin="round" stroke-dasharray="5 7"/>
<path d="M589.217 47.6011L640.283 43.1047L600.633 24.5849L601.331 33.7656L590.182 39.5587L589.217 47.6011Z" fill="#685ED6"/>
<path d="M640.284 43.104L592.798 28.2223L552.368 36.3854L640.284 43.104Z" fill="#18E1F7"/>
<path d="M600.634 24.5846L640.284 43.1044L603.833 7.34511L600.634 24.5846Z" fill="#18E1F7"/>
<path d="M577.5 17C537.5 1.14441e-05 517.4 10.5 499 28.5C476 51 497 104.5 442 101" stroke="#685ED6" stroke-linecap="round" stroke-linejoin="round" stroke-dasharray="5 7"/>
<path d="M657 52C669.833 60.8333 710.5 76.5 763.5 61" stroke="#685ED6" stroke-linecap="round" stroke-linejoin="round" stroke-dasharray="5 7"/>
</svg>
